<svg width="36" height="50" viewBox="0 0 36 50" fill="none" xmlns="http://www.w3.org/2000/svg">
<path d="M6.57008 17.2226C6.57008 15.4849 6.57008 13.8876 6.57008 12.2902C6.57008 9.99664 6.51768 7.70012 6.59627 5.40945C6.69525 2.59804 8.79115 0.564818 11.4576 0.561893C14.1241 0.558967 16.2287 2.57756 16.3277 5.39482C16.415 7.75863 16.3539 10.1283 16.3597 12.495V13.9344C19.3492 13.4429 21.5529 14.3761 22.7143 17.325C25.7825 16.582 28.0123 17.6176 29.1854 20.4378C30.0738 20.3905 30.9642 20.3964 31.8519 20.4553C33.7906 20.6923 35.6623 22.3452 35.7671 24.2907C35.9913 28.5707 36.3668 32.8887 35.1355 37.0956C32.7717 45.1817 24.8888 50.626 16.6158 49.9386C8.17402 49.2364 1.0858 42.6248 0.259085 34.1906C-0.148451 30.0042 0.0203855 25.7505 0.133913 21.529C0.203777 18.8112 2.63153 16.9038 5.32709 17.1027C5.68223 17.129 6.03446 17.17 6.57008 17.2226ZM6.57008 33.4329V32.0228C6.57008 28.7403 6.57007 25.4609 6.55552 22.1814C6.55552 21.0433 5.90346 20.3793 4.94575 20.3763C3.98804 20.3734 3.33598 21.0404 3.33307 22.1755C3.33307 25.7827 3.21954 29.3986 3.41458 32.9999C3.81047 40.2668 9.79543 46.2085 16.9826 46.6737C24.3357 47.1505 31.1096 42.0426 32.2798 34.764C32.7805 31.6337 32.5709 28.3776 32.6058 25.1771C32.6058 24.2497 31.9945 23.7143 31.0659 23.6675C30.1373 23.6207 29.5144 24.2351 29.4241 25.2005C29.3746 25.73 29.4241 26.2683 29.4241 26.8154H26.1347V22.237C26.1347 21.4441 25.8815 20.7918 25.1013 20.4816C23.9922 20.0399 22.9443 20.7976 22.9035 22.117C22.857 23.6704 22.9035 25.2297 22.9035 26.8154H19.6083C19.6083 24.2087 19.6083 21.6987 19.6083 19.1886C19.6083 17.8048 19.0028 17.0705 17.952 17.0939C16.9011 17.1173 16.3742 17.8253 16.3655 19.1418C16.3655 21.3271 16.3655 23.53 16.3655 25.7007C16.3655 26.084 16.3247 26.4643 16.3073 26.8124H13.1052V25.4258C13.1052 19.0482 13.1052 12.6706 13.1052 6.29295C13.1052 4.62542 12.5667 3.82383 11.4663 3.83846C10.366 3.85308 9.85656 4.62542 9.85656 6.32514V33.4416L6.57008 33.4329Z" fill="#2CAEE2"/>
</svg>
