<svg width="25" height="25" viewBox="0 0 25 25" fill="none" xmlns="http://www.w3.org/2000/svg">
<circle cx="12.7907" cy="12.5002" r="12.2093" transform="rotate(-180 12.7907 12.5002)" fill="#2CAEE2"/>
<path d="M10.5861 16.9233C10.6468 16.9842 10.719 17.0326 10.7985 17.0655C10.8779 17.0985 10.9631 17.1155 11.0491 17.1155C11.1352 17.1155 11.2204 17.0985 11.2998 17.0655C11.3793 17.0326 11.4515 16.9842 11.5122 16.9233L15.9128 12.5227C15.9613 12.4743 15.9998 12.4168 16.0261 12.3535C16.0523 12.2902 16.0658 12.2224 16.0658 12.1538C16.0658 12.0853 16.0523 12.0175 16.0261 11.9542C15.9998 11.8909 15.9613 11.8334 15.9128 11.7849L11.5122 7.38437C11.2558 7.12797 10.8425 7.12797 10.5861 7.38437C10.3297 7.64076 10.3297 8.05413 10.5861 8.31053L14.4268 12.1512L10.5808 15.9972C10.3297 16.2536 10.3297 16.6669 10.5861 16.9233Z" fill="white"/>
</svg>
