<svg width="60" height="25" viewBox="0 0 60 25" fill="none" xmlns="http://www.w3.org/2000/svg">
<circle r="12.2093" transform="matrix(1 0 0 -1 12.2093 12.5002)" fill="#2CAEE2"/>
<path d="M14.4139 16.9233C14.3532 16.9842 14.281 17.0326 14.2015 17.0655C14.1221 17.0985 14.0369 17.1155 13.9509 17.1155C13.8648 17.1155 13.7796 17.0985 13.7002 17.0655C13.6207 17.0326 13.5485 16.9842 13.4878 16.9233L9.0872 12.5227C9.03869 12.4743 9.0002 12.4168 8.97395 12.3535C8.94769 12.2902 8.93417 12.2224 8.93417 12.1538C8.93417 12.0853 8.94769 12.0175 8.97395 11.9542C9.0002 11.8909 9.03869 11.8334 9.0872 11.7849L13.4878 7.38437C13.7442 7.12797 14.1575 7.12797 14.4139 7.38437C14.6703 7.64076 14.6703 8.05413 14.4139 8.31053L10.5732 12.1512L14.4192 15.9972C14.6703 16.2536 14.6703 16.6669 14.4139 16.9233Z" fill="white"/>
<circle cx="47.7907" cy="12.5002" r="12.2093" transform="rotate(-180 47.7907 12.5002)" fill="#2CAEE2"/>
<path d="M45.5861 16.9233C45.6468 16.9842 45.719 17.0326 45.7985 17.0655C45.8779 17.0985 45.9631 17.1155 46.0491 17.1155C46.1352 17.1155 46.2204 17.0985 46.2998 17.0655C46.3793 17.0326 46.4515 16.9842 46.5122 16.9233L50.9128 12.5227C50.9613 12.4743 50.9998 12.4168 51.0261 12.3535C51.0523 12.2902 51.0658 12.2224 51.0658 12.1538C51.0658 12.0853 51.0523 12.0175 51.0261 11.9542C50.9998 11.8909 50.9613 11.8334 50.9128 11.7849L46.5122 7.38437C46.2558 7.12797 45.8425 7.12797 45.5861 7.38437C45.3297 7.64076 45.3297 8.05413 45.5861 8.31053L49.4268 12.1512L45.5808 15.9972C45.3297 16.2536 45.3297 16.6669 45.5861 16.9233Z" fill="white"/>
</svg>
