<svg width="22" height="22" viewBox="0 0 22 22" fill="none" xmlns="http://www.w3.org/2000/svg">
<path d="M19.9375 5.46349C19.2801 5.74708 18.5646 5.95118 17.8277 6.03067C18.5928 5.57614 19.1657 4.85805 19.439 4.01114C18.7211 4.43823 17.9346 4.73771 17.1144 4.8963C16.7716 4.52983 16.3571 4.23789 15.8965 4.03866C15.4359 3.83943 14.9393 3.73718 14.4375 3.73829C12.4072 3.73829 10.7744 5.38399 10.7744 7.40353C10.7744 7.68712 10.8088 7.97071 10.8646 8.24357C7.82461 8.08458 5.11328 6.63224 3.31075 4.4086C2.9823 4.96959 2.81019 5.60835 2.81231 6.25841C2.81231 7.53028 3.45899 8.65177 4.44512 9.31134C3.86398 9.28845 3.29644 9.12872 2.78868 8.84513V8.89024C2.78868 10.6713 4.04766 12.1473 5.72559 12.4867C5.41054 12.5686 5.08644 12.6104 4.76094 12.6113C4.52246 12.6113 4.29688 12.5877 4.06914 12.5555C4.5332 14.0078 5.88457 15.0627 7.49375 15.0971C6.23476 16.0832 4.65781 16.6633 2.94551 16.6633C2.63829 16.6633 2.35469 16.6526 2.06036 16.6182C3.68457 17.6602 5.61172 18.2617 7.68711 18.2617C14.4246 18.2617 18.1113 12.6801 18.1113 7.83536C18.1113 7.67638 18.1113 7.51739 18.1006 7.35841C18.8138 6.83634 19.439 6.18966 19.9375 5.46349Z" fill="#2CAEE2"/>
</svg>
